<svg viewBox="0 0 32 32" fill="none" xmlns="http://www.w3.org/2000/svg"><path d="M0 16a16 16 0 1 1 32 0 16 16 0 1 1-32 0Z" fill="#fff"/><path d="m11.7 20.76 2.81-2.96 3.2 2.96h5.46l-8.7-8.57-8.62 8.57h5.86Z" fill="#2D383F"/><path d="m19.84 7.01-4.16 4.23 2.75 2.82 1.41-1.4 7.72 7.67a12.38 12.38 0 0 1-23.97-4.33 12.38 12.38 0 0 1 24.56-2.22l3.74 3.95a15.89 15.89 0 0 0-4.58-13.04 15.89 15.89 0 0 0-11.31-4.69c-4.3 0-8.28 1.66-11.31 4.69a15.83 15.83 0 0 0-4.69 11.31c0 4.3 1.66 8.28 4.69 11.31a15.89 15.89 0 0 0 11.31 4.69 15.9 15.9 0 0 0 11.31-4.69 15.64 15.64 0 0 0 3.95-6.52c.14-.42.25-.88.35-1.3l-3.24-3.42-8.53-9.06Z" fill="#2D383F"/></svg>
